<svg width="112px" height="112px" viewBox="0 0 112 112" version="1.1" xmlns="http://www.w3.org/2000/svg" xmlns:xlink="http://www.w3.org/1999/xlink">
    <!-- Generator: Sketch 49 (51002) - http://www.bohemiancoding.com/sketch -->
    <desc>Created with Sketch.</desc>
    <defs>
        <linearGradient x1="50%" y1="0%" x2="50%" y2="184.37349%" id="linearGradient-1">
            <stop stop-color="#008AD4" offset="0%"></stop>
            <stop stop-color="#4748FF" offset="100%"></stop>
        </linearGradient>
    </defs>
    <g id="黑色版" stroke="none" stroke-width="1" fill="none" fill-rule="evenodd">
        <g id="3.0-Career" transform="translate(-604.000000, -2801.000000)">
            <g id="Group-8" transform="translate(0.000000, 2050.000000)">
                <g id="Group-7" transform="translate(435.000000, 130.000000)">
                    <g id="Group-2" transform="translate(169.000000, 621.000000)">
                        <circle id="Oval-2-Copy-4" fill="url(#linearGradient-1)" cx="56" cy="56" r="56"></circle>
                        <path d="M74.53125,48.7625 L39.26875,48.7625 C38.5201,48.7625 37.9125,48.1562562 37.9125,47.40625 C37.9125,46.6576 38.5201,46.05 39.26875,46.05 L74.53125,46.05 C75.2799,46.05 75.8875,46.6576 75.8875,47.40625 C75.8875,48.1562562 75.2799,48.7625 74.53125,48.7625 L74.53125,48.7625 Z M58.25625,51.475 L73.175,51.475 L73.175,62.325 L58.25625,62.325 L58.25625,51.475 Z M73.175,73.175 C73.175,74.6723 71.9598,75.8875 70.4625,75.8875 L58.25625,75.8875 L58.25625,65.0375 L73.175,65.0375 L73.175,73.175 L73.175,73.175 Z M40.625,51.475 L55.54375,51.475 L55.54375,62.325 L40.625,62.325 L40.625,51.475 Z M55.54375,75.8875 L43.3375,75.8875 C41.8402,75.8875 40.625,74.6723 40.625,73.175 L40.625,65.0375 L55.54375,65.0375 L55.54375,75.8875 L55.54375,75.8875 Z M52.83125,37.9125 C54.32855,37.9125 55.54375,39.1277 55.54375,40.625 C55.54375,42.1223 54.32855,43.3375 52.83125,43.3375 C51.33395,43.3375 50.11875,42.1223 50.11875,40.625 C50.11875,39.1277 51.33395,37.9125 52.83125,37.9125 L52.83125,37.9125 Z M60.96875,37.9125 C62.46605,37.9125 63.68125,39.1277 63.68125,40.625 C63.68125,42.1223 62.46605,43.3375 60.96875,43.3375 C59.47145,43.3375 58.25625,42.1223 58.25625,40.625 C58.25625,39.1277 59.47145,37.9125 60.96875,37.9125 L60.96875,37.9125 Z M75.8875,43.3375 L65.6410313,43.3375 C66.1075813,42.5373125 66.39375,41.617775 66.39375,40.625 C66.39375,37.6290437 63.9647063,35.2 60.96875,35.2 C59.3385375,35.2 57.8941313,35.9337312 56.9,37.071625 C55.9058688,35.9337312 54.4614625,35.2 52.83125,35.2 C49.8352938,35.2 47.40625,37.6290437 47.40625,40.625 C47.40625,41.617775 47.6924188,42.5373125 48.1589688,43.3375 L37.9125,43.3375 C36.4152,43.3375 35.2,44.5527 35.2,46.05 L35.2,48.7625 C35.2,50.2598 36.4152,51.475 37.9125,51.475 L37.9125,73.175 C37.9125,76.1709562 40.3415437,78.6 43.3375,78.6 L70.4625,78.6 C73.4584563,78.6 75.8875,76.1709562 75.8875,73.175 L75.8875,51.475 C77.3848,51.475 78.6,50.2598 78.6,48.7625 L78.6,46.05 C78.6,44.5527 77.3848,43.3375 75.8875,43.3375 L75.8875,43.3375 Z" id="Fill-92" fill="#FFFFFE"></path>
                    </g>
                </g>
            </g>
        </g>
    </g>
</svg>