<svg width="112px" height="112px" viewBox="0 0 112 112" version="1.1" xmlns="http://www.w3.org/2000/svg" xmlns:xlink="http://www.w3.org/1999/xlink">
    <!-- Generator: Sketch 49 (51002) - http://www.bohemiancoding.com/sketch -->
    <desc>Created with Sketch.</desc>
    <defs>
        <linearGradient x1="50%" y1="0%" x2="50%" y2="184.37349%" id="linearGradient-1">
            <stop stop-color="#008AD4" offset="0%"></stop>
            <stop stop-color="#4748FF" offset="100%"></stop>
        </linearGradient>
    </defs>
    <g id="黑色版" stroke="none" stroke-width="1" fill="none" fill-rule="evenodd">
        <g id="3.0-Career" transform="translate(-1204.000000, -2372.000000)">
            <g id="Group-8" transform="translate(0.000000, 2050.000000)">
                <g id="Group-7" transform="translate(435.000000, 130.000000)">
                    <g id="Group-5" transform="translate(769.000000, 192.000000)">
                        <circle id="Oval-2-Copy-3" fill="url(#linearGradient-1)" cx="56" cy="56" r="56"></circle>
                        <path d="M72.375,56.1562125 L56.1,75.575 L39.825,56.0761937 C37.8787812,53.3718313 37.1125,51.5449625 37.1125,49.0440375 C37.1125,44.3798937 40.4420937,40.1823 45.25,40.1429688 C49.204825,40.1104188 53.6885875,44.1493313 56.1,47.1941125 C58.4476688,44.256475 62.995175,40.1429688 66.95,40.1429688 C71.6304188,40.1429688 75.0875,44.3798937 75.0875,49.0440375 C75.0875,51.5449625 74.4812563,53.5074562 72.375,56.1562125 L72.375,56.1562125 Z M66.95,37.6 C62.4296188,37.6 59.0091563,40.252825 56.1,43.025 C53.3291813,40.0832938 49.7703812,37.6 45.25,37.6 C38.8837625,37.6 34.4,43.073825 34.4,49.0440375 C34.4,52.2461437 35.7114937,54.5517687 37.1477625,56.7190562 L54.0100188,76.9353187 C55.9019875,78.9385 56.2600375,78.9385 58.1520063,76.9353187 L75.0522375,56.7190562 C76.742125,54.5517687 77.8,52.2461437 77.8,49.0440375 C77.8,43.073825 73.3162375,37.6 66.95,37.6 L66.95,37.6 Z" id="Fill-72" fill="#FFFFFE"></path>
                    </g>
                </g>
            </g>
        </g>
    </g>
</svg>