<svg width="112px" height="112px" viewBox="0 0 112 112" version="1.1" xmlns="http://www.w3.org/2000/svg" xmlns:xlink="http://www.w3.org/1999/xlink">
    <!-- Generator: Sketch 49 (51002) - http://www.bohemiancoding.com/sketch -->
    <desc>Created with Sketch.</desc>
    <defs>
        <linearGradient x1="50%" y1="0%" x2="50%" y2="184.37349%" id="linearGradient-1">
            <stop stop-color="#008AD4" offset="0%"></stop>
            <stop stop-color="#4748FF" offset="100%"></stop>
        </linearGradient>
    </defs>
    <g id="黑色版" stroke="none" stroke-width="1" fill="none" fill-rule="evenodd">
        <g id="3.0-Career" transform="translate(-605.000000, -2372.000000)">
            <g id="Group-8" transform="translate(0.000000, 2050.000000)">
                <g id="Group-7" transform="translate(435.000000, 130.000000)">
                    <g id="Group" transform="translate(170.000000, 192.000000)">
                        <circle id="Oval-2-Copy-2" fill="url(#linearGradient-1)" cx="56" cy="56" r="56"></circle>
                        <path d="M56.0999987,54.3249984 C53.1035905,54.3249984 50.674999,51.8964068 50.674999,48.8999987 C50.674999,45.9035905 53.1035905,43.474999 56.0999987,43.474999 C59.0964068,43.474999 61.5249984,45.9035905 61.5249984,48.8999987 C61.5249984,51.8964068 59.0964068,54.3249984 56.0999987,54.3249984 L56.0999987,54.3249984 Z M56.0999987,39.8583326 C51.1071907,39.8583326 47.0583326,43.9053823 47.0583326,48.8999987 C47.0583326,53.8946151 51.1071907,57.9416648 56.0999987,57.9416648 C61.0928067,57.9416648 65.1416648,53.8946151 65.1416648,48.8999987 C65.1416648,43.9053823 61.0928067,39.8583326 56.0999987,39.8583326 L56.0999987,39.8583326 Z M56.0999987,79.6416635 C53.0927405,79.6579385 38.0166664,56.4606399 38.0166664,48.8999987 C38.0166664,38.9143826 46.1125743,30.8166664 56.0999987,30.8166664 C66.0874231,30.8166664 74.1833309,38.9143826 74.1833309,48.8999987 C74.1833309,56.3593732 59.0602402,79.6579385 56.0999987,79.6416635 L56.0999987,79.6416635 Z M56.0999987,27.2 C44.1161744,27.2 34.4,36.9161744 34.4,48.8999987 C34.4,57.9742148 52.4923739,85.0865549 56.0999987,85.0666632 C59.6515651,85.0865549 77.7999974,57.8512482 77.7999974,48.8999987 C77.7999974,36.9161744 68.083823,27.2 56.0999987,27.2 L56.0999987,27.2 Z" id="Fill-162" fill="#FFFFFE"></path>
                    </g>
                </g>
            </g>
        </g>
    </g>
</svg>