<svg width="112px" height="112px" viewBox="0 0 112 112" version="1.1" xmlns="http://www.w3.org/2000/svg" xmlns:xlink="http://www.w3.org/1999/xlink">
    <!-- Generator: Sketch 49 (51002) - http://www.bohemiancoding.com/sketch -->
    <desc>Created with Sketch.</desc>
    <defs>
        <linearGradient x1="50%" y1="0%" x2="50%" y2="184.37349%" id="linearGradient-1">
            <stop stop-color="#008AD4" offset="0%"></stop>
            <stop stop-color="#4748FF" offset="100%"></stop>
        </linearGradient>
    </defs>
    <g id="黑色版" stroke="none" stroke-width="1" fill="none" fill-rule="evenodd">
        <g id="3.0-Career" transform="translate(-1204.000000, -2801.000000)">
            <g id="Group-8" transform="translate(0.000000, 2050.000000)">
                <g id="Group-7" transform="translate(435.000000, 130.000000)">
                    <g id="Group-6" transform="translate(769.000000, 621.000000)">
                        <circle id="Oval-2-Copy-5" fill="url(#linearGradient-1)" cx="56" cy="56" r="56"></circle>
                        <path d="M67.7368605,68.9784871 C65.7795365,70.8802361 63.6961522,72.8551815 63.6961522,72.8551815 L60.1041102,66.7229558 C63.8655881,65.8066463 67.1174027,63.6351552 69.3851334,60.6801924 L73.3133362,67.3844338 C73.3133362,67.3844338 70.512899,68.1895934 67.7368605,68.9784871 L67.7368605,68.9784871 Z M56.1,64.2315697 C48.6204198,64.2315697 42.5586795,58.1549191 42.5586795,50.661784 C42.5586795,43.1686489 48.6204198,37.0919983 56.1,37.0919983 C63.5795802,37.0919983 69.6413205,43.1686489 69.6413205,50.661784 C69.6413205,58.1549191 63.5795802,64.2315697 56.1,64.2315697 L56.1,64.2315697 Z M48.5038478,72.8551815 C48.5038478,72.8551815 46.4204635,70.8802361 44.4631395,68.9784871 C41.687101,68.1895934 38.8866638,67.3844338 38.8866638,67.3844338 L42.8148666,60.6801924 C45.0825973,63.6351552 48.3344119,65.8066463 52.0958898,66.7229558 L48.5038478,72.8551815 L48.5038478,72.8551815 Z M71.0388282,58.0342807 C72.1272847,55.8505903 72.7562309,53.4052908 72.7562309,50.8095321 C72.7562309,41.7467425 65.2983384,34.4 56.1,34.4 C46.9016616,34.4 39.4437691,41.7467425 39.4437691,50.8095321 C39.4437691,53.4052908 40.0727153,55.8505903 41.1611718,58.0342807 L34.4,69.5694797 C34.4,69.5694797 38.6874071,70.4302143 43.0371666,71.324836 C45.9379099,74.5536073 48.8250984,77.7756012 48.8250984,77.7756012 L55.0413642,67.1675557 C55.393791,67.1892436 55.7421513,67.2204198 56.1,67.2204198 C56.4578487,67.2204198 56.806209,67.1892436 57.1586358,67.1675557 L63.3749016,77.7756012 C63.3749016,77.7756012 66.2620901,74.5536073 69.1628334,71.324836 C73.5125929,70.4302143 77.8,69.5694797 77.8,69.5694797 L71.0388282,58.0342807 L71.0388282,58.0342807 Z M56.1,57.4432882 C52.3561434,57.4432882 49.3225623,54.409707 49.3225623,50.6658505 C49.3225623,46.9219939 52.3561434,43.8884128 56.1,43.8884128 C59.8438566,43.8884128 62.8774377,46.9219939 62.8774377,50.6658505 C62.8774377,54.409707 59.8438566,57.4432882 56.1,57.4432882 L56.1,57.4432882 Z M56.1,41.1774377 C50.8596852,41.1774377 46.6115872,45.4255356 46.6115872,50.6658505 C46.6115872,55.9061653 50.8596852,60.1542632 56.1,60.1542632 C61.3403148,60.1542632 65.5884128,55.9061653 65.5884128,50.6658505 C65.5884128,45.4255356 61.3403148,41.1774377 56.1,41.1774377 L56.1,41.1774377 Z" id="Fill-158" fill="#FFFFFE"></path>
                    </g>
                </g>
            </g>
        </g>
    </g>
</svg>