
<svg width="20px" height="20px" viewBox="0 0 20 20" version="1.1" xmlns="http://www.w3.org/2000/svg" xmlns:xlink="http://www.w3.org/1999/xlink">
    <!-- Generator: Sketch 49 (51002) - http://www.bohemiancoding.com/sketch -->
    <desc>Created with Sketch.</desc>
    <defs></defs>
    <g id="Page-1" stroke="none" stroke-width="1" fill="none" fill-rule="evenodd">
        <g id="Desktop-HD" transform="translate(-630.000000, -731.000000)" fill="#FFFFFF">
            <path d="M643.815038,736.092583 L642.431714,736.093197 C641.34711,736.093197 641.137391,736.608593 641.137391,737.364808 L641.137391,739.032327 L643.72399,739.032327 L643.722762,741.644092 L641.137596,741.644092 L641.137596,748.346496 L638.439898,748.346496 L638.439898,741.644092 L636.184962,741.644092 L636.184962,739.032327 L638.439898,739.032327 L638.439898,737.106189 C638.439898,734.870895 639.805627,733.653504 641.799488,733.653504 L643.815243,733.656573 L643.815243,736.092583 L643.815038,736.092583 Z M640,731 C634.476931,731 630,735.477136 630,741 C630,746.522864 634.476931,751 640,751 C645.522864,751 650,746.522864 650,741 C650,735.477136 645.522864,731 640,731 Z" id="Fill-1"></path>
        </g>
    </g>
</svg>