
<svg width="87px" height="84px" viewBox="0 0 87 84" version="1.1" xmlns="http://www.w3.org/2000/svg" xmlns:xlink="http://www.w3.org/1999/xlink">
    <!-- Generator: Sketch 49 (51002) - http://www.bohemiancoding.com/sketch -->
    <desc>Created with Sketch.</desc>
    <defs></defs>
    <g id="黑色版" stroke="none" stroke-width="1" fill="none" fill-rule="evenodd">
        <g id="1.0-homepage" transform="translate(-1016.000000, -3651.000000)" stroke="#FFFFFF" stroke-width="3">
            <g id="blockchain" transform="translate(1018.000000, 3653.000000)">
                <rect id="Rectangle-path" x="23.4565217" y="29.0909091" width="21.6521739" height="21.8181818"></rect>
                <rect id="Rectangle-path" x="45.1086957" y="29.0909091" width="14.4347826" height="21.8181818"></rect>
                <path d="M64.9565217,45.4545455 L64.9565217,34.5454545 L75.3134783,34.5454545 C73.178216,21.1684459 63.4872059,10.2801947 50.5217391,6.69090909 L50.5217391,10.9090909 L32.4782609,10.9090909 L32.4782609,6.69090909 C19.5127941,10.2801947 9.82178401,21.1684459 7.68652174,34.5454545 L18.0434783,34.5454545 L18.0434783,45.4545455 L7.68652174,45.4545455 C9.82178401,58.8315541 19.5127941,69.7198053 32.4782609,73.3090909 L32.4782609,69.0909091 L50.5217391,69.0909091 L50.5217391,73.3090909 C63.4872059,69.7198053 73.178216,58.8315541 75.3134783,45.4545455 L64.9565217,45.4545455 Z" id="Shape"></path>
                <path d="M43.3043478,10.9090909 L32.4782609,10.9090909 L32.4782609,0 L43.3043478,0 L43.3043478,10.9090909 Z M50.5217391,0 L43.3043478,0 L43.3043478,10.9090909 L50.5217391,10.9090909 L50.5217391,0 Z M43.3043478,69.0909091 L32.4782609,69.0909091 L32.4782609,80 L43.3043478,80 L43.3043478,69.0909091 Z M50.5217391,69.0909091 L43.3043478,69.0909091 L43.3043478,80 L50.5217391,80 L50.5217391,69.0909091 Z M10.826087,34.5454545 L0,34.5454545 L0,45.4545455 L10.826087,45.4545455 L10.826087,34.5454545 Z M18.0434783,34.5454545 L10.826087,34.5454545 L10.826087,45.4545455 L18.0434783,45.4545455 L18.0434783,34.5454545 Z M75.7826087,34.5454545 L64.9565217,34.5454545 L64.9565217,45.4545455 L75.7826087,45.4545455 L75.7826087,34.5454545 Z M83,34.5454545 L75.7826087,34.5454545 L75.7826087,45.4545455 L83,45.4545455 L83,34.5454545 Z" id="Shape"></path>
                <path d="M18.0434783,40 L23.4565217,40" id="Shape"></path>
                <path d="M59.5434783,40 L64.9565217,40" id="Shape"></path>
                <path d="M41.5,50.9090909 L41.5,69.0909091" id="Shape"></path>
                <path d="M41.5,29.0909091 L41.5,10.9090909" id="Shape"></path>
            </g>
        </g>
    </g>
</svg>