
<svg width="83px" height="80px" viewBox="0 0 83 80" version="1.1" xmlns="http://www.w3.org/2000/svg" xmlns:xlink="http://www.w3.org/1999/xlink">
    <!-- Generator: Sketch 49 (51002) - http://www.bohemiancoding.com/sketch -->
    <desc>Created with Sketch.</desc>
    <defs></defs>
    <g id="黑色版" stroke="none" stroke-width="1" fill="none" fill-rule="evenodd">
        <g id="1.0-homepage" transform="translate(-422.000000, -3653.000000)" fill="#FFFFFF" fill-rule="nonzero">
            <g id="blockchain" transform="translate(422.000000, 3653.000000)">
                <ellipse id="Oval" cx="56.5909091" cy="40" rx="1.88636364" ry="1.88976378"></ellipse>
                <ellipse id="Oval" cx="26.4090909" cy="40" rx="1.88636364" ry="1.88976378"></ellipse>
                <ellipse id="Oval" cx="18.8636364" cy="53.2283465" rx="1.88636364" ry="1.88976378"></ellipse>
                <ellipse id="Oval" cx="64.1363636" cy="26.7716535" rx="1.88636364" ry="1.88976378"></ellipse>
                <ellipse id="Oval" cx="18.8636364" cy="17.3228346" rx="1.88636364" ry="1.88976378"></ellipse>
                <ellipse id="Oval" cx="13.2045455" cy="21.1023622" rx="1.88636364" ry="1.88976378"></ellipse>
                <ellipse id="Oval" cx="24.5227273" cy="13.5433071" rx="1.88636364" ry="1.88976378"></ellipse>
                <ellipse id="Oval" cx="32.0681818" cy="13.5433071" rx="1.88636364" ry="1.88976378"></ellipse>
                <ellipse id="Oval" cx="39.6136364" cy="13.5433071" rx="1.88636364" ry="1.88976378"></ellipse>
                <ellipse id="Oval" cx="64.1363636" cy="62.6771654" rx="1.88636364" ry="1.88976378"></ellipse>
                <ellipse id="Oval" cx="69.7954545" cy="58.8976378" rx="1.88636364" ry="1.88976378"></ellipse>
                <ellipse id="Oval" cx="58.4772727" cy="66.4566929" rx="1.88636364" ry="1.88976378"></ellipse>
                <ellipse id="Oval" cx="50.9318182" cy="66.4566929" rx="1.88636364" ry="1.88976378"></ellipse>
                <ellipse id="Oval" cx="43.3863636" cy="66.4566929" rx="1.88636364" ry="1.88976378"></ellipse>
                <path d="M46.2159091,20.9133858 L55.6477273,26.5826772 C55.8363636,26.7716535 56.2136364,26.7716535 56.5909091,26.7716535 C56.9681818,26.7716535 57.3454545,26.7716535 57.5340909,26.5826772 L66.9659091,20.9133858 C67.5318182,20.5354331 67.9090909,19.9685039 67.9090909,19.2125984 L67.9090909,7.87401575 C67.9090909,7.11811024 67.5318182,6.5511811 66.9659091,6.17322835 L57.5340909,0.503937008 C56.9681818,0.125984252 56.2136364,0.125984252 55.6477273,0.503937008 L46.2159091,6.17322835 C45.65,6.5511811 45.2727273,7.11811024 45.2727273,7.87401575 L45.2727273,19.2125984 C45.2727273,19.9685039 45.65,20.5354331 46.2159091,20.9133858 Z M64.1363636,18.0787402 L58.4772727,21.480315 L58.4772727,14.6771654 L64.1363636,11.2755906 L64.1363636,18.0787402 Z M56.5909091,4.47244094 L62.4386364,7.87401575 L56.5909091,11.2755906 L50.7431818,7.87401575 L56.5909091,4.47244094 Z M49.0454545,11.2755906 L54.7045455,14.6771654 L54.7045455,21.6692913 L49.0454545,18.2677165 L49.0454545,11.2755906 Z" id="Shape"></path>
                <path d="M82.0568182,32.6299213 L72.625,26.9606299 C72.0590909,26.5826772 71.3045455,26.5826772 70.7386364,26.9606299 L61.3068182,32.6299213 C60.7409091,33.007874 60.3636364,33.5748031 60.3636364,34.3307087 L60.3636364,45.6692913 C60.3636364,46.4251969 60.7409091,46.992126 61.3068182,47.3700787 L70.7386364,53.0393701 C70.9272727,53.2283465 71.3045455,53.2283465 71.6818182,53.2283465 C72.0590909,53.2283465 72.4363636,53.2283465 72.625,53.0393701 L82.0568182,47.3700787 C82.6227273,46.992126 83,46.4251969 83,45.6692913 L83,34.3307087 C83,33.5748031 82.6227273,33.007874 82.0568182,32.6299213 Z M69.7954545,47.9370079 L64.1363636,44.5354331 L64.1363636,37.5433071 L69.7954545,40.9448819 L69.7954545,47.9370079 Z M71.6818182,37.7322835 L65.8340909,34.3307087 L71.6818182,30.9291339 L77.5295455,34.3307087 L71.6818182,37.7322835 Z M79.2272727,44.5354331 L73.5681818,47.9370079 L73.5681818,40.9448819 L79.2272727,37.5433071 L79.2272727,44.5354331 Z" id="Shape"></path>
                <path d="M36.7840909,59.0866142 L27.3522727,53.4173228 C26.7863636,53.0393701 26.0318182,53.0393701 25.4659091,53.4173228 L16.0340909,59.0866142 C15.4681818,59.4645669 15.0909091,60.0314961 15.0909091,60.7874016 L15.0909091,72.1259843 C15.0909091,72.8818898 15.4681818,73.4488189 16.0340909,73.8267717 L25.4659091,79.496063 C25.6545455,79.6850394 26.0318182,79.6850394 26.4090909,79.6850394 C26.7863636,79.6850394 27.1636364,79.6850394 27.3522727,79.496063 L36.7840909,73.8267717 C37.35,73.4488189 37.7272727,72.8818898 37.7272727,72.1259843 L37.7272727,60.7874016 C37.7272727,60.0314961 37.35,59.4645669 36.7840909,59.0866142 Z M24.5227273,74.3937008 L18.8636364,70.992126 L18.8636364,64 L24.5227273,67.4015748 L24.5227273,74.3937008 Z M26.4090909,64.1889764 L20.5613636,60.7874016 L26.4090909,57.3858268 L32.2568182,60.7874016 L26.4090909,64.1889764 Z M33.9545455,70.992126 L28.2954545,74.3937008 L28.2954545,67.4015748 L33.9545455,64 L33.9545455,70.992126 Z" id="Shape"></path>
                <path d="M51.875,32.6299213 L42.4431818,26.9606299 C41.8772727,26.5826772 41.1227273,26.5826772 40.5568182,26.9606299 L31.125,32.6299213 C30.5590909,33.007874 30.1818182,33.5748031 30.1818182,34.3307087 L30.1818182,45.6692913 C30.1818182,46.4251969 30.5590909,46.992126 31.125,47.3700787 L40.5568182,53.0393701 C40.7454545,53.2283465 41.1227273,53.2283465 41.5,53.2283465 C41.8772727,53.2283465 42.2545455,53.2283465 42.4431818,53.0393701 L51.875,47.3700787 C52.4409091,46.992126 52.8181818,46.4251969 52.8181818,45.6692913 L52.8181818,34.3307087 C52.8181818,33.5748031 52.4409091,33.007874 51.875,32.6299213 Z M39.6136364,47.9370079 L33.9545455,44.5354331 L33.9545455,37.5433071 L39.6136364,40.9448819 L39.6136364,47.9370079 Z M41.5,37.7322835 L35.6522727,34.3307087 L41.5,30.9291339 L47.3477273,34.3307087 L41.5,37.7322835 Z M49.0454545,44.5354331 L43.3863636,47.9370079 L43.3863636,40.9448819 L49.0454545,37.5433071 L49.0454545,44.5354331 Z" id="Shape"></path>
                <path d="M22.6363636,45.6692913 L22.6363636,34.3307087 C22.6363636,33.5748031 22.2590909,33.007874 21.6931818,32.6299213 L12.2613636,26.9606299 C11.6954545,26.5826772 10.9409091,26.5826772 10.375,26.9606299 L0.943181818,32.6299213 C0.377272727,33.007874 0,33.5748031 0,34.3307087 L0,45.6692913 C0,46.4251969 0.377272727,46.992126 0.943181818,47.3700787 L10.375,53.0393701 C10.5636364,53.2283465 10.9409091,53.2283465 11.3181818,53.2283465 C11.6954545,53.2283465 12.0727273,53.2283465 12.2613636,53.0393701 L21.6931818,47.3700787 C22.2590909,46.992126 22.6363636,46.4251969 22.6363636,45.6692913 Z M9.43181818,47.9370079 L3.77272727,44.5354331 L3.77272727,37.5433071 L9.43181818,40.9448819 L9.43181818,47.9370079 Z M11.3181818,37.7322835 L5.47045455,34.3307087 L11.3181818,30.9291339 L17.1659091,34.3307087 L11.3181818,37.7322835 Z M18.8636364,44.5354331 L13.2045455,47.9370079 L13.2045455,40.9448819 L18.8636364,37.5433071 L18.8636364,44.5354331 Z" id="Shape"></path>
            </g>
        </g>
    </g>
</svg>