
<svg width="65px" height="65px" viewBox="0 0 65 65" version="1.1" xmlns="http://www.w3.org/2000/svg" xmlns:xlink="http://www.w3.org/1999/xlink">
    <!-- Generator: Sketch 49 (51002) - http://www.bohemiancoding.com/sketch -->
    <desc>Created with Sketch.</desc>
    <defs></defs>
    <g id="黑色版" stroke="none" stroke-width="1" fill="none" fill-rule="evenodd">
        <g id="1.0-homepage" transform="translate(-1027.000000, -3354.000000)" fill="#FFFFFF" fill-rule="nonzero">
            <g id="Group-6" transform="translate(993.000000, 3320.000000)">
                <g id="network" transform="translate(34.913793, 34.913793)">
                    <path d="M32.372176,19.1290131 C25.0148633,19.1290131 19.1290131,25.0148633 19.1290131,32.372176 C19.1290131,39.7294887 25.0148633,45.6153389 32.372176,45.6153389 C39.7294887,45.6153389 45.6153389,39.7294887 45.6153389,32.372176 C45.6153389,25.0148633 39.7294887,19.1290131 32.372176,19.1290131 Z M32.372176,44.1438763 C25.8977408,44.1438763 20.6004756,38.8466112 20.6004756,32.372176 C20.6004756,25.8977408 25.8977408,20.6004756 32.372176,20.6004756 C38.8466112,20.6004756 44.1438763,25.8977408 44.1438763,32.372176 C44.1438763,38.8466112 38.8466112,44.1438763 32.372176,44.1438763 Z" id="Shape"></path>
                    <path d="M37.6694411,31.6364447 C37.9637337,30.9007134 38.2580262,30.1649822 38.2580262,29.4292509 C38.2580262,26.9277646 36.3451249,25.0148633 33.8436385,25.0148633 C33.8436385,24.1319857 33.2550535,23.5434007 32.372176,23.5434007 C31.4892985,23.5434007 30.9007134,24.1319857 30.9007134,25.0148633 L27.9577883,25.0148633 C27.0749108,25.0148633 26.4863258,25.6034483 26.4863258,26.4863258 C26.4863258,27.3692033 27.0749108,27.9577883 27.9577883,27.9577883 L27.9577883,36.7865636 C27.0749108,36.7865636 26.4863258,37.3751486 26.4863258,38.2580262 C26.4863258,39.1409037 27.0749108,39.7294887 27.9577883,39.7294887 L30.9007134,39.7294887 C30.9007134,40.6123662 31.4892985,41.2009512 32.372176,41.2009512 C33.2550535,41.2009512 33.8436385,40.6123662 33.8436385,39.7294887 L35.3151011,39.7294887 C37.8165874,39.7294887 39.7294887,37.8165874 39.7294887,35.3151011 C39.7294887,33.6964923 38.8466112,32.372176 37.6694411,31.6364447 Z M30.9007134,27.9577883 L33.8436385,27.9577883 C34.7265161,27.9577883 35.3151011,28.5463734 35.3151011,29.4292509 C35.3151011,30.3121284 34.7265161,30.9007134 33.8436385,30.9007134 L30.9007134,30.9007134 L30.9007134,27.9577883 Z M35.3151011,36.7865636 L30.9007134,36.7865636 L30.9007134,33.8436385 L35.3151011,33.8436385 C36.1979786,33.8436385 36.7865636,34.4322235 36.7865636,35.3151011 C36.7865636,36.1979786 36.1979786,36.7865636 35.3151011,36.7865636 Z" id="Shape"></path>
                    <path d="M60.9536638,55.5711207 L58.3351293,36.0775862 C59.9353448,35.4956897 61.0991379,33.8954741 61.0991379,32.0043103 C61.0991379,30.1131466 59.9353448,28.6584052 58.3351293,27.9310345 L60.9536638,8.4375 C62.6993534,8.00107759 64.0086207,6.25538793 64.0086207,4.36422414 C64.0086207,1.89116379 62.1174569,0 59.6443966,0 C57.7532328,0 56.0075431,1.30926724 55.5711207,3.0549569 L36.0775862,5.67349138 C35.3502155,4.07327586 33.8954741,2.90948276 32.0043103,2.90948276 C30.1131466,2.90948276 28.6584052,4.07327586 27.9310345,5.67349138 L8.4375,3.0549569 C8.00107759,1.30926724 6.25538793,0 4.36422414,0 C1.89116379,0 0,1.89116379 0,4.36422414 C0,6.25538793 1.30926724,8.00107759 3.0549569,8.4375 L5.67349138,27.9310345 C4.07327586,28.6584052 2.90948276,30.1131466 2.90948276,32.0043103 C2.90948276,33.8954741 4.07327586,35.3502155 5.67349138,36.0775862 L3.0549569,55.5711207 C1.30926724,56.0075431 0,57.7532328 0,59.6443966 C0,62.1174569 1.89116379,64.0086207 4.36422414,64.0086207 C6.25538793,64.0086207 8.00107759,62.6993534 8.4375,60.9536638 L27.9310345,58.3351293 C28.512931,59.9353448 30.1131466,61.0991379 32.0043103,61.0991379 C33.8954741,61.0991379 35.3502155,59.9353448 36.0775862,58.3351293 L55.5711207,60.9536638 C56.1530172,62.6993534 57.7532328,64.0086207 59.6443966,64.0086207 C62.1174569,64.0086207 64.0086207,62.1174569 64.0086207,59.6443966 C64.0086207,57.7532328 62.6993534,56.0075431 60.9536638,55.5711207 Z M59.6443966,2.90948276 C60.5172414,2.90948276 61.0991379,3.49137931 61.0991379,4.36422414 C61.0991379,5.23706897 60.5172414,5.81896552 59.6443966,5.81896552 C58.7715517,5.81896552 58.1896552,5.23706897 58.1896552,4.36422414 C58.1896552,3.49137931 58.7715517,2.90948276 59.6443966,2.90948276 Z M57.7532328,8.29202586 C57.8987069,8.29202586 57.8987069,8.4375 58.044181,8.4375 L55.4256466,27.9310345 C54.1163793,28.3674569 53.0980603,29.3857759 52.6616379,30.549569 L50.9159483,30.549569 C50.625,26.4762931 49.0247845,22.6939655 46.40625,19.7844828 L57.7532328,8.29202586 Z M58.1896552,32.0043103 C58.1896552,32.8771552 57.6077586,33.4590517 56.7349138,33.4590517 C55.862069,33.4590517 55.2801724,32.8771552 55.2801724,32.0043103 C55.2801724,31.1314655 55.862069,30.549569 56.7349138,30.549569 C57.6077586,30.549569 58.1896552,31.1314655 58.1896552,32.0043103 Z M32.0043103,48.0064655 C23.1303879,48.0064655 16.0021552,40.8782328 16.0021552,32.0043103 C16.0021552,23.1303879 23.1303879,16.0021552 32.0043103,16.0021552 C40.8782328,16.0021552 48.0064655,23.1303879 48.0064655,32.0043103 C48.0064655,40.8782328 40.8782328,48.0064655 32.0043103,48.0064655 Z M36.0775862,8.58297414 L55.5711207,5.96443966 C55.5711207,6.10991379 55.7165948,6.10991379 55.7165948,6.25538793 L44.2241379,17.7478448 C41.3146552,15.2747845 37.5323276,13.5290948 33.4590517,13.2381466 L33.4590517,11.3469828 C34.768319,10.9105603 35.7866379,9.89224138 36.0775862,8.58297414 Z M32.0043103,5.81896552 C32.8771552,5.81896552 33.4590517,6.40086207 33.4590517,7.2737069 C33.4590517,8.14655172 32.8771552,8.72844828 32.0043103,8.72844828 C31.1314655,8.72844828 30.549569,8.14655172 30.549569,7.2737069 C30.549569,6.40086207 31.1314655,5.81896552 32.0043103,5.81896552 Z M8.4375,5.96443966 L27.9310345,8.58297414 C28.3674569,9.89224138 29.3857759,10.9105603 30.549569,11.3469828 L30.549569,13.0926724 C26.4762931,13.3836207 22.6939655,14.9838362 19.7844828,17.6023707 L8.29202586,6.25538793 C8.29202586,6.10991379 8.4375,6.10991379 8.4375,5.96443966 Z M6.25538793,8.29202586 L17.7478448,19.7844828 C15.2747845,22.6939655 13.5290948,26.4762931 13.2381466,30.549569 L11.3469828,30.549569 C10.9105603,29.2403017 9.89224138,28.2219828 8.58297414,27.9310345 L5.96443966,8.4375 C6.10991379,8.4375 6.10991379,8.29202586 6.25538793,8.29202586 Z M4.36422414,5.81896552 C3.49137931,5.81896552 2.90948276,5.23706897 2.90948276,4.36422414 C2.90948276,3.49137931 3.49137931,2.90948276 4.36422414,2.90948276 C5.23706897,2.90948276 5.81896552,3.49137931 5.81896552,4.36422414 C5.81896552,5.23706897 5.23706897,5.81896552 4.36422414,5.81896552 Z M4.36422414,61.0991379 C3.49137931,61.0991379 2.90948276,60.5172414 2.90948276,59.6443966 C2.90948276,58.7715517 3.49137931,58.1896552 4.36422414,58.1896552 C5.23706897,58.1896552 5.81896552,58.7715517 5.81896552,59.6443966 C5.81896552,60.5172414 5.23706897,61.0991379 4.36422414,61.0991379 Z M7.2737069,30.549569 C8.14655172,30.549569 8.72844828,31.1314655 8.72844828,32.0043103 C8.72844828,32.8771552 8.14655172,33.4590517 7.2737069,33.4590517 C6.40086207,33.4590517 5.81896552,32.8771552 5.81896552,32.0043103 C5.81896552,31.1314655 6.40086207,30.549569 7.2737069,30.549569 Z M6.25538793,55.7165948 C6.10991379,55.7165948 6.10991379,55.5711207 5.96443966,55.5711207 L8.58297414,36.0775862 C9.89224138,35.6411638 10.9105603,34.6228448 11.3469828,33.4590517 L13.0926724,33.4590517 C13.3836207,37.5323276 14.9838362,41.3146552 17.6023707,44.2241379 L6.25538793,55.7165948 Z M27.9310345,55.4256466 L8.4375,58.044181 C8.4375,57.8987069 8.29202586,57.8987069 8.29202586,57.7532328 L19.7844828,46.2607759 C22.6939655,48.7338362 26.4762931,50.4795259 30.549569,50.7704741 L30.549569,52.5161638 C29.2403017,53.0980603 28.2219828,54.1163793 27.9310345,55.4256466 Z M32.0043103,58.1896552 C31.1314655,58.1896552 30.549569,57.6077586 30.549569,56.7349138 C30.549569,55.862069 31.1314655,55.2801724 32.0043103,55.2801724 C32.8771552,55.2801724 33.4590517,55.862069 33.4590517,56.7349138 C33.4590517,57.6077586 32.8771552,58.1896552 32.0043103,58.1896552 Z M55.5711207,58.044181 L36.0775862,55.4256466 C35.6411638,54.1163793 34.6228448,53.0980603 33.4590517,52.6616379 L33.4590517,50.9159483 C37.5323276,50.625 41.3146552,49.0247845 44.2241379,46.40625 L55.7165948,57.8987069 C55.7165948,57.8987069 55.5711207,57.8987069 55.5711207,58.044181 Z M57.7532328,55.7165948 L46.2607759,44.2241379 C48.7338362,41.3146552 50.4795259,37.5323276 50.7704741,33.4590517 L52.5161638,33.4590517 C52.9525862,34.768319 53.9709052,35.7866379 55.2801724,36.0775862 L57.8987069,55.5711207 C57.8987069,55.5711207 57.8987069,55.7165948 57.7532328,55.7165948 Z M59.6443966,61.0991379 C58.7715517,61.0991379 58.1896552,60.5172414 58.1896552,59.6443966 C58.1896552,58.7715517 58.7715517,58.1896552 59.6443966,58.1896552 C60.5172414,58.1896552 61.0991379,58.7715517 61.0991379,59.6443966 C61.0991379,60.5172414 60.5172414,61.0991379 59.6443966,61.0991379 Z" id="Shape"></path>
                </g>
            </g>
        </g>
    </g>
</svg>