
<svg width="71px" height="71px" viewBox="0 0 71 71" version="1.1" xmlns="http://www.w3.org/2000/svg" xmlns:xlink="http://www.w3.org/1999/xlink">
    <!-- Generator: Sketch 49 (51002) - http://www.bohemiancoding.com/sketch -->
    <desc>Created with Sketch.</desc>
    <defs></defs>
    <g id="黑色版" stroke="none" stroke-width="1" fill="none" fill-rule="evenodd">
        <g id="1.0-homepage" transform="translate(-427.000000, -3355.000000)" fill="#FFFFFF" fill-rule="nonzero">
            <g id="5-bitcoin,-coin,-exchange,-block,-chain,-cryptocurrency,-product" transform="translate(427.000000, 3355.000000)">
                <path d="M62.6778936,71 L37.7523617,71 C37.1258245,71 36.619383,70.5041094 36.619383,69.890625 L36.619383,39.9375 C36.619383,39.3240156 37.1258245,38.828125 37.7523617,38.828125 L62.6778936,38.828125 C63.3044309,38.828125 63.8108723,39.3240156 63.8108723,39.9375 L63.8108723,69.890625 C63.8108723,70.5041094 63.3044309,71 62.6778936,71 Z M38.8853404,68.78125 L61.5449149,68.78125 L61.5449149,41.046875 L38.8853404,41.046875 L38.8853404,68.78125 Z" id="Shape"></path>
                <path d="M69.5029574,71 L62.7050851,71 C62.0785479,71 61.5721064,70.5041094 61.5721064,69.890625 L61.5721064,39.9375 C61.5721064,39.3240156 62.0785479,38.828125 62.7050851,38.828125 L69.5029574,38.828125 C70.1294947,38.828125 70.6359362,39.3240156 70.6359362,39.9375 L70.6359362,69.890625 C70.6359362,70.5041094 70.1283617,71 69.5029574,71 Z M63.8380638,68.78125 L68.3699787,68.78125 L68.3699787,41.046875 L63.8380638,41.046875 L63.8380638,68.78125 Z" id="Shape"></path>
                <path d="M54.7470426,36.609375 C54.7470426,34.1620937 52.7144787,32.171875 50.2151277,32.171875 C47.7157766,32.171875 45.6832128,34.1620937 45.6832128,36.609375 L45.6832128,44.375 C45.6832128,44.9884844 45.1767713,45.484375 44.550234,45.484375 C43.9236968,45.484375 43.4172553,44.9884844 43.4172553,44.375 L43.4172553,36.609375 C43.4172553,32.9384531 46.4661011,29.953125 50.2151277,29.953125 C53.9641543,29.953125 57.013,32.9384531 57.013,36.609375 C57.013,35.997 56.5065585,35.5 55.8800213,35.5 C55.253484,35.5 54.7470426,35.997 54.7470426,36.609375 Z" id="Combined-Shape"></path>
                <path d="M61.5449149,36.609375 C61.5449149,34.1620937 59.5123511,32.171875 57.013,32.171875 C54.5136489,32.171875 52.4810851,34.1620937 52.4810851,36.609375 L52.4810851,39.9375 C52.4810851,40.5509844 51.9746436,41.046875 51.3481064,41.046875 C50.7215691,41.046875 50.2151277,40.5509844 50.2151277,39.9375 L50.2151277,36.609375 C50.2151277,32.9384531 53.2639734,29.953125 57.013,29.953125 C60.7620266,29.953125 63.8108723,32.9384531 63.8108723,36.609375 C63.8108723,35.997 63.3044309,35.5 62.6778936,35.5 C62.0513564,35.5 61.5449149,35.997 61.5449149,36.609375 Z" id="Combined-Shape"></path>
                <path d="M16.225766,31.0625 C7.47917021,31.0625 0.36406383,24.095625 0.36406383,15.53125 C0.36406383,6.966875 7.47917021,0 16.225766,0 C24.9723617,0 32.0874681,6.966875 32.0874681,15.53125 C32.0874681,24.095625 24.9723617,31.0625 16.225766,31.0625 Z M16.225766,2.21875 C8.72884574,2.21875 2.63002128,8.19051562 2.63002128,15.53125 C2.63002128,22.8719844 8.72884574,28.84375 16.225766,28.84375 C23.7226862,28.84375 29.8215106,22.8719844 29.8215106,15.53125 C29.8215106,8.19051562 23.7226862,2.21875 16.225766,2.21875 Z" id="Shape"></path>
                <path d="M16.225766,37.71875 C7.47917021,37.71875 0.36406383,30.751875 0.36406383,22.1875 C0.36406383,21.575125 0.870505319,21.078125 1.49704255,21.078125 C2.12357979,21.078125 2.63002128,21.575125 2.63002128,22.1875 C2.63002128,29.5282344 8.72884574,35.5 16.225766,35.5 C23.7226862,35.5 29.8215106,29.5282344 29.8215106,22.1875 C29.8215106,21.575125 30.3279521,21.078125 30.9544894,21.078125 C31.5810266,21.078125 32.0874681,21.575125 32.0874681,22.1875 C32.0874681,30.751875 24.9723617,37.71875 16.225766,37.71875 Z" id="Shape"></path>
                <path d="M1.49704255,23.296875 C0.870505319,23.296875 0.36406383,22.799875 0.36406383,22.1875 L0.36406383,15.53125 C0.36406383,14.918875 0.870505319,14.421875 1.49704255,14.421875 C2.12357979,14.421875 2.63002128,14.918875 2.63002128,15.53125 L2.63002128,22.1875 C2.63002128,22.799875 2.12357979,23.296875 1.49704255,23.296875 Z" id="Shape"></path>
                <path d="M30.9544894,23.296875 C30.3279521,23.296875 29.8215106,22.799875 29.8215106,22.1875 L29.8215106,15.53125 C29.8215106,14.918875 30.3279521,14.421875 30.9544894,14.421875 C31.5810266,14.421875 32.0874681,14.918875 32.0874681,15.53125 L32.0874681,22.1875 C32.0874681,22.799875 31.5810266,23.296875 30.9544894,23.296875 Z" id="Shape"></path>
                <path d="M16.225766,37.71875 C15.5992287,37.71875 15.0927872,37.2228594 15.0927872,36.609375 L15.0927872,29.953125 C15.0927872,29.34075 15.5992287,28.84375 16.225766,28.84375 C16.8523032,28.84375 17.3587447,29.34075 17.3587447,29.953125 L17.3587447,36.609375 C17.3587447,37.2228594 16.8523032,37.71875 16.225766,37.71875 Z" id="Shape"></path>
                <path d="M24.156617,35.4500781 C23.5300798,35.4500781 23.0236383,34.9530781 23.0236383,34.3407031 L23.0236383,27.6844531 C23.0236383,27.0720781 23.5300798,26.5750781 24.156617,26.5750781 C24.7831543,26.5750781 25.2895957,27.0720781 25.2895957,27.6844531 L25.2895957,34.3407031 C25.2895957,34.9530781 24.7831543,35.4500781 24.156617,35.4500781 Z" id="Shape"></path>
                <path d="M8.29491489,35.4500781 C7.66837766,35.4500781 7.16193617,34.9530781 7.16193617,34.3407031 L7.16193617,27.6844531 C7.16193617,27.0720781 7.66837766,26.5750781 8.29491489,26.5750781 C8.92145213,26.5750781 9.42789362,27.0720781 9.42789362,27.6844531 L9.42789362,34.3407031 C9.42789362,34.9530781 8.92145213,35.4500781 8.29491489,35.4500781 Z" id="Shape"></path>
                <path d="M15.0927872,53.25 L15.0927872,42.15625 C15.0927872,41.5427656 15.5992287,41.046875 16.225766,41.046875 C16.8523032,41.046875 17.3587447,41.5427656 17.3587447,42.15625 L17.3587447,52.140625 L32.0874681,52.140625 C32.7140053,52.140625 33.2204468,52.6365156 33.2204468,53.25 C33.2204468,53.8634844 32.7140053,54.359375 32.0874681,54.359375 L16.225766,54.359375 C15.5992287,54.359375 15.0927872,53.8634844 15.0927872,53.25 Z" id="Combined-Shape"></path>
                <path d="M17.0267819,41.3719219 L20.4257181,44.7000469 C20.8687128,45.1338125 20.8687128,45.8349375 20.4257181,46.2687031 C20.2047872,46.4850312 19.9147447,46.59375 19.6247021,46.59375 C19.3346596,46.59375 19.044617,46.4850312 18.8236862,46.2687031 L16.225766,43.7249062 L13.6278457,46.2687031 C13.4069149,46.4850312 13.1168723,46.59375 12.8268298,46.59375 C12.5367872,46.59375 12.2467447,46.4850312 12.0258138,46.2687031 C11.5828191,45.8349375 11.5828191,45.1338125 12.0258138,44.7000469 L15.42475,41.3719219 C15.8677447,40.9381562 16.5837872,40.9381562 17.0267819,41.3719219 Z" id="Combined-Shape"></path>
                <path d="M52.4810851,16.640625 L36.619383,16.640625 C35.9928457,16.640625 35.4864043,16.143625 35.4864043,15.53125 C35.4864043,14.918875 35.9928457,14.421875 36.619383,14.421875 L53.6140638,14.421875 C53.9273324,14.421875 54.2105771,14.546125 54.4155047,14.7469219 C54.6204322,14.9477187 54.7470426,15.2250625 54.7470426,15.53125 L54.7470426,25.515625 C54.7470426,26.128 54.2406011,26.625 53.6140638,26.625 C52.9875266,26.625 52.4810851,26.128 52.4810851,25.515625 L52.4810851,16.640625 Z" id="Combined-Shape"></path>
                <path d="M12.8268298,23.296875 C12.2002926,23.296875 11.6938511,22.799875 11.6938511,22.1875 L11.6938511,8.875 C11.6938511,8.262625 12.2002926,7.765625 12.8268298,7.765625 C13.453367,7.765625 13.9598085,8.262625 13.9598085,8.875 L13.9598085,22.1875 C13.9598085,22.799875 13.453367,23.296875 12.8268298,23.296875 Z" id="Shape"></path>
                <path d="M17.925234,23.296875 C17.2986968,23.296875 16.7922553,22.799875 16.7922553,22.1875 C16.7922553,21.575125 17.2986968,21.078125 17.925234,21.078125 C19.4876117,21.078125 20.7576809,19.8334062 20.7576809,18.3046875 C20.7576809,16.7759687 19.4876117,15.53125 17.925234,15.53125 C17.2986968,15.53125 16.7922553,15.03425 16.7922553,14.421875 C16.7922553,13.8095 17.2986968,13.3125 17.925234,13.3125 C20.7361543,13.3125 23.0236383,15.5523281 23.0236383,18.3046875 C23.0236383,21.0570469 20.7372872,23.296875 17.925234,23.296875 Z" id="Shape"></path>
                <path d="M17.925234,15.53125 C17.2986968,15.53125 16.7922553,15.03425 16.7922553,14.421875 C16.7922553,13.8095 17.2986968,13.3125 17.925234,13.3125 C18.8622074,13.3125 19.6247021,12.5658906 19.6247021,11.6484375 C19.6247021,10.7309844 18.8622074,9.984375 17.925234,9.984375 C17.2986968,9.984375 16.7922553,9.487375 16.7922553,8.875 C16.7922553,8.262625 17.2986968,7.765625 17.925234,7.765625 C20.111883,7.765625 21.8906596,9.50734375 21.8906596,11.6484375 C21.8906596,13.7895312 20.111883,15.53125 17.925234,15.53125 Z" id="Shape"></path>
                <path d="M17.925234,9.984375 L11.6938511,9.984375 C11.0673138,9.984375 10.5608723,9.487375 10.5608723,8.875 C10.5608723,8.262625 11.0673138,7.765625 11.6938511,7.765625 L17.925234,7.765625 C18.5517713,7.765625 19.0582128,8.262625 19.0582128,8.875 C19.0582128,9.487375 18.5517713,9.984375 17.925234,9.984375 Z" id="Shape"></path>
                <path d="M17.925234,15.53125 L12.8268298,15.53125 C12.2002926,15.53125 11.6938511,15.03425 11.6938511,14.421875 C11.6938511,13.8095 12.2002926,13.3125 12.8268298,13.3125 L17.925234,13.3125 C18.5517713,13.3125 19.0582128,13.8095 19.0582128,14.421875 C19.0582128,15.03425 18.5517713,15.53125 17.925234,15.53125 Z" id="Shape"></path>
                <path d="M17.925234,23.296875 L11.6938511,23.296875 C11.0673138,23.296875 10.5608723,22.799875 10.5608723,22.1875 C10.5608723,21.575125 11.0673138,21.078125 11.6938511,21.078125 L17.925234,21.078125 C18.5517713,21.078125 19.0582128,21.575125 19.0582128,22.1875 C19.0582128,22.799875 18.5517713,23.296875 17.925234,23.296875 Z" id="Shape"></path>
                <path d="M16.225766,9.984375 C15.5992287,9.984375 15.0927872,9.487375 15.0927872,8.875 L15.0927872,7.765625 C15.0927872,7.15325 15.5992287,6.65625 16.225766,6.65625 C16.8523032,6.65625 17.3587447,7.15325 17.3587447,7.765625 L17.3587447,8.875 C17.3587447,9.487375 16.8523032,9.984375 16.225766,9.984375 Z" id="Shape"></path>
                <path d="M16.225766,24.40625 C15.5992287,24.40625 15.0927872,23.90925 15.0927872,23.296875 L15.0927872,22.1875 C15.0927872,21.575125 15.5992287,21.078125 16.225766,21.078125 C16.8523032,21.078125 17.3587447,21.575125 17.3587447,22.1875 L17.3587447,23.296875 C17.3587447,23.90925 16.8523032,24.40625 16.225766,24.40625 Z" id="Shape"></path>
                <path d="M53.6140638,26.625 C53.3240213,26.625 53.0339787,26.5162812 52.8130479,26.2999531 C52.3700532,25.8661875 52.3700532,25.1650625 52.8130479,24.7312969 L56.211984,21.4031719 C56.6549787,20.9694062 57.3710213,20.9694062 57.814016,21.4031719 C58.2570106,21.8369375 58.2570106,22.5380625 57.814016,22.9718281 L54.4150798,26.2999531 C54.1941489,26.5162812 53.9041064,26.625 53.6140638,26.625 Z M53.6140638,26.625 C53.3240213,26.625 53.0339787,26.5162812 52.8130479,26.2999531 L49.4141117,22.9718281 C48.971117,22.5380625 48.971117,21.8369375 49.4141117,21.4031719 C49.8571064,20.9694062 50.5731489,20.9694062 51.0161436,21.4031719 L54.4150798,24.7312969 C54.8580745,25.1650625 54.8580745,25.8661875 54.4150798,26.2999531 C54.1941489,26.5162812 53.9041064,26.625 53.6140638,26.625 Z" id="Combined-Shape"></path>
            </g>
        </g>
    </g>
</svg>