
<svg width="20px" height="20px" viewBox="0 0 20 20" version="1.1" xmlns="http://www.w3.org/2000/svg" xmlns:xlink="http://www.w3.org/1999/xlink">
    <!-- Generator: Sketch 49 (51002) - http://www.bohemiancoding.com/sketch -->
    <desc>Created with Sketch.</desc>
    <defs></defs>
    <g id="Page-1" stroke="none" stroke-width="1" fill="none" fill-rule="evenodd">
        <g id="Desktop-HD" transform="translate(-576.000000, -731.000000)" fill="#FFFFFF">
            <path d="M591.019359,732.37479 C589.487114,731.458185 587.814359,731 585.999954,731 C584.185686,731 582.512384,731.458326 580.980458,732.37479 C579.448304,733.291301 578.235387,734.534773 577.341159,736.105347 C576.447068,737.675875 576,739.390902 576,741.250384 C576,743.484044 576.635737,745.492608 577.907531,747.27659 C579.179188,749.060713 580.82198,750.295256 582.835771,750.980314 C583.070182,751.024959 583.24371,750.99359 583.356537,750.887003 C583.46941,750.780369 583.525778,750.646761 583.525778,750.486786 C583.525778,750.460093 583.523544,750.219944 583.519211,749.766059 C583.514742,749.312175 583.512644,748.916212 583.512644,748.578358 L583.213154,748.631418 C583.022205,748.667321 582.781318,748.682515 582.490494,748.678167 C582.199806,748.674006 581.898036,748.642778 581.585594,748.584716 C581.273016,748.527215 580.982282,748.3937 580.713166,748.18464 C580.444186,747.975532 580.253237,747.701818 580.140364,747.363917 L580.010161,747.056777 C579.923374,746.852298 579.786741,746.625098 579.600078,746.376161 C579.413416,746.126943 579.224656,745.957992 579.033707,745.869029 L578.942542,745.802132 C578.881796,745.757674 578.825428,745.704053 578.773301,745.64183 C578.72122,745.579607 578.682227,745.517338 578.656187,745.454975 C578.6301,745.392565 578.651717,745.341328 578.721265,745.301218 C578.790813,745.261061 578.916501,745.241566 579.098877,745.241566 L579.359192,745.281443 C579.532811,745.317113 579.747566,745.423653 580.003731,745.60172 C580.259758,745.779599 580.470227,746.010959 580.635181,746.295566 C580.834932,746.660487 581.075591,746.938503 581.357842,747.129892 C581.639864,747.321235 581.924213,747.416743 582.210614,747.416743 C582.497015,747.416743 582.744378,747.394444 582.952794,747.35022 C583.160982,747.305715 583.356309,747.23877 583.538685,747.149901 C583.616806,746.553479 583.829509,746.095247 584.176611,745.775017 C583.681885,745.721724 583.237097,745.641409 582.842019,745.534728 C582.447169,745.427861 582.039138,745.254422 581.618202,745.013946 C581.197037,744.773798 580.847656,744.475587 580.569965,744.119828 C580.292229,743.763836 580.064294,743.296581 579.886479,742.718345 C579.708573,742.139874 579.619597,741.472582 579.619597,740.716279 C579.619597,739.639419 579.962549,738.723049 580.648315,737.966606 C580.327072,737.157056 580.357399,736.249474 580.739389,735.244 C580.99113,735.163826 581.364454,735.223945 581.85918,735.424123 C582.353997,735.624302 582.716285,735.79587 582.946409,735.93808 C583.176533,736.080243 583.360915,736.200715 583.499829,736.29842 C584.30727,736.067153 585.140523,735.95145 585.999863,735.95145 C586.859112,735.95145 587.692548,736.067153 588.500034,736.29842 L588.994851,735.978237 C589.333197,735.764595 589.732699,735.568764 590.192491,735.390838 C590.652556,735.212959 591.004355,735.163966 591.247522,735.24414 C591.63804,736.249661 591.672791,737.157196 591.351457,737.966793 C592.037223,738.723189 592.380266,739.639793 592.380266,740.716419 C592.380266,741.472722 592.290971,742.142118 592.113338,742.72503 C591.935478,743.307988 591.705582,743.774868 591.423559,744.126513 C591.141217,744.478111 590.7896,744.773985 590.368709,745.01404 C589.947636,745.254376 589.539469,745.427814 589.144619,745.534682 C588.749632,745.641503 588.304798,745.721864 587.810072,745.775251 C588.261336,746.175468 588.486945,746.807325 588.486945,747.670402 L588.486945,750.486412 C588.486945,750.646387 588.541216,750.779901 588.649847,750.886676 C588.758342,750.993216 588.929681,751.024585 589.164092,750.97994 C591.178203,750.294882 592.820949,749.060292 594.09256,747.276216 C595.364035,745.492234 596,743.48367 596,741.25001 C595.999544,739.390762 595.552248,737.675875 594.658567,736.105347 C593.764385,734.534773 592.551377,733.291348 591.019359,732.37479 Z" id="Fill-1"></path>
        </g>
    </g>
</svg>