
<svg width="63px" height="40px" viewBox="0 0 63 40" version="1.1" xmlns="http://www.w3.org/2000/svg" xmlns:xlink="http://www.w3.org/1999/xlink">
    <!-- Generator: Sketch 49 (51002) - http://www.bohemiancoding.com/sketch -->
    <desc>Created with Sketch.</desc>
    <defs>
        <linearGradient x1="85.087786%" y1="9.13228672%" x2="30.8121477%" y2="91.9389189%" id="linearGradient-1">
            <stop stop-color="#48ABFF" offset="0%"></stop>
            <stop stop-color="#2C62FC" offset="99.961%"></stop>
        </linearGradient>
        <linearGradient x1="70.9613799%" y1="29.2589062%" x2="15.428571%" y2="99.937531%" id="linearGradient-2">
            <stop stop-color="#48ABFF" offset="0%"></stop>
            <stop stop-color="#2C62FC" offset="99.961%"></stop>
        </linearGradient>
    </defs>
    <g id="Page-1" stroke="none" stroke-width="1" fill="none" fill-rule="evenodd">
        <g id="Desktop-HD" transform="translate(-372.000000, -35.000000)" fill-rule="nonzero">
            <g id="RG-02" transform="translate(372.000000, 35.000000)">
                <path d="M31.423768,26.180371 L25.6387432,26.180371 L25.6387432,31.6088173 C20.8787215,33.8568053 15.2254984,32.9895043 11.3636161,29.4187691 C7.50173368,25.8480339 6.20913733,20.2931604 8.09964135,15.3919876 C9.99014536,10.4908149 14.6829229,7.23064482 19.9495178,7.15963222 L25.6387432,7.15963222 L25.6387432,0 L19.8047083,0 L19.8047083,0.00648541126 C10.995469,0.118270851 3.29054713,5.94760951 0.811824818,14.3759951 C-1.6668975,22.8043808 1.66086714,31.8586654 9.01487308,36.6951019 C16.368879,41.5315383 26.0274986,41.0178806 32.8236851,35.428919 L32.8236851,35.4286497 L32.8237301,35.4288293 L32.9359312,35.3240005 L33,35.2479409 L33,26.180371 L31.423768,26.180371 Z" id="Shape" fill="url(#linearGradient-1)"></path>
                <path d="M60.8802496,32.9203663 C57.0552527,32.9220173 53.4460806,31.1384392 51.1104132,28.0923156 C50.8768467,27.815821 50.4677333,27.277082 50.0209814,26.6747977 C50.3465911,27.1052444 50.7077118,27.5756883 51.1104132,28.0923156 C56.9018779,24.6525405 59.7103634,17.7579634 57.9829679,11.2208178 C56.2555724,4.68367225 50.4141901,0.100572803 43.6887093,0.00566259093 L43.6887093,0 L32.3037826,0 L32.3037826,7.10400831 L43.5271616,7.10400831 C47.1958362,7.13090173 50.3705382,9.67710012 51.2126886,13.2680125 C52.0548391,16.8589249 50.3460491,20.5633456 47.0759377,22.2359174 C44.3231534,17.7204177 39.8972587,14.4915903 34.7743886,13.2615561 L34.7016111,13.2442092 C34.2983145,13.1497031 33.8920724,13.0631335 33.4797902,12.9937387 L33.4797902,13.0029619 C32.4409655,12.8262199 31.3898075,12.7328481 30.3362595,12.7237296 L30.3353966,12.7218147 L26.3567688,12.7209021 L25,12.7209021 L25,20.5225311 L29.2382289,20.5225311 L29.2382289,20.5349484 C29.3036052,20.5298319 29.3696212,20.5268248 29.4353472,20.5225311 L30.9848679,20.5225311 C32.6055096,20.6276808 34.188024,21.0627851 35.6364278,21.8014538 L35.6366137,21.8014538 C37.0436603,22.5200748 38.2977387,23.5079076 39.3285423,24.709572 L39.3358097,24.709572 C39.3899242,24.7726684 39.4484498,24.8318376 39.5012477,24.8961233 L39.5014783,24.8959438 L45.1639723,31.9258073 L45.175234,31.9350305 C48.818613,37.0035825 54.6611211,40.0038742 60.8802496,39.9999962 C61.5884325,39.9991744 62.2960517,39.9597928 63,39.8820244 L63,32.7346378 C62.2999949,32.8573676 61.5908133,32.9195048 60.8802496,32.9203663 Z M47.9903062,23.851596 C48.1038091,24.0223489 48.2360122,24.2157522 48.3791201,24.4222984 C48.1301411,24.0764988 47.969605,23.851596 47.969605,23.851596 L47.9903062,23.851596 Z" id="Shape" fill="url(#linearGradient-2)"></path>
            </g>
        </g>
    </g>
</svg>
