<svg id="图层_1" data-name="图层 1" xmlns="http://www.w3.org/2000/svg" viewBox="0 0 403.75383 67.56818"><title>未标题-2</title><path d="M114.42585,49.49735a21.66778,21.66778,0,0,1-6.7038,4.36421,20.838,20.838,0,0,1-15.9055-.10517,21.262,21.262,0,0,1-6.62582-4.443A20.72993,20.72993,0,0,1,80.722,42.71477a20.92443,20.92443,0,0,1,0-16.19534,20.72993,20.72993,0,0,1,4.46871-6.59864,21.26322,21.26322,0,0,1,6.62582-4.443,20.838,20.838,0,0,1,15.9055-.10517,21.66669,21.66669,0,0,1,6.7038,4.36428l-4.89024,4.88952a14.03339,14.03339,0,0,0-9.62171-3.83823A13.64689,13.64689,0,0,0,94.49752,21.866a13.85528,13.85528,0,0,0-7.38727,7.38808,13.88052,13.88052,0,0,0,0,10.726,13.85528,13.85528,0,0,0,7.38727,7.38808A13.64689,13.64689,0,0,0,99.9139,48.446a14.35241,14.35241,0,0,0,4.31129-.65775,13.16386,13.16386,0,0,0,3.9434-2.024V38.03485H99.96608v-6.8355h14.565V49.18171Z" fill="#fff"/><path d="M147.65311,54.86067l-2.99734-6.8355H128.77614l-2.9966,6.8355h-7.4668L136.716,12.79618l18.40317,42.0645ZM136.716,29.83234l-4.94258,11.35727h9.8851Z" fill="#fff"/><path d="M193.13143,54.86067V33.67057L180.66922,49.81293,168.26059,33.67057V54.86067h-6.8355V12.79618l19.24413,26.343,19.24479-26.343v42.0645Z" fill="#fff"/><path d="M209.374,54.86067V14.37352h25.23874V21.209H216.20954v9.99033h16.29978v6.8355H216.20954v9.99033h18.40317v6.8355Z" fill="#fff"/><path d="M251.96026,54.86067h-6.8355V14.37352h15.93188a11.53183,11.53183,0,0,1,4.57468.9204,11.92633,11.92633,0,0,1,6.336,6.336,11.02826,11.02826,0,0,1,.91967,4.36421,12.43186,12.43186,0,0,1-.63056,4.04871,11.57214,11.57214,0,0,1-1.78775,3.33864,12.20953,12.20953,0,0,1-2.76041,2.603,11.51029,11.51029,0,0,1-3.54911,1.6296l8.99122,17.24664h-7.8876l-8.04436-16.82583h-5.25815Zm13.69686-30.5756a5.02124,5.02124,0,0,0-2.681-2.6817,4.83,4.83,0,0,0-1.91952-.39435h-9.09638v9.99033h9.09638a4.83,4.83,0,0,0,1.91952-.39435,5.04935,5.04935,0,0,0,1.60314-1.07782,5.143,5.143,0,0,0,1.07782-1.57742,4.69655,4.69655,0,0,0,.39428-1.91944A4.87849,4.87849,0,0,0,265.65713,24.28507Z" fill="#fff"/><path d="M317.26175,42.71477A20.75621,20.75621,0,0,1,306.2194,53.75639a20.9233,20.9233,0,0,1-16.19454,0,20.75815,20.75815,0,0,1-11.04162-11.04162,20.92443,20.92443,0,0,1,0-16.19534A20.75815,20.75815,0,0,1,290.02486,15.4778a20.9233,20.9233,0,0,1,16.19454,0,20.75621,20.75621,0,0,1,11.04236,11.04162,20.934,20.934,0,0,1,0,16.19534Zm-6.389-13.46066a13.85509,13.85509,0,0,0-7.38734-7.38808,13.88321,13.88321,0,0,0-10.72671,0,13.85574,13.85574,0,0,0-7.38734,7.38808,13.88139,13.88139,0,0,0,0,10.726,13.85574,13.85574,0,0,0,7.38734,7.38808,13.88321,13.88321,0,0,0,10.72671,0,13.85509,13.85509,0,0,0,7.38734-7.38808,13.88139,13.88139,0,0,0,0-10.726Z" fill="#fff"/><path d="M363.00209,42.71477a20.75637,20.75637,0,0,1-11.04236,11.04162,20.92352,20.92352,0,0,1-16.19463,0,20.75815,20.75815,0,0,1-11.04162-11.04162,20.9253,20.9253,0,0,1,0-16.19534A20.75815,20.75815,0,0,1,335.76511,15.4778a20.92352,20.92352,0,0,1,16.19463,0,20.75637,20.75637,0,0,1,11.04236,11.04162,20.934,20.934,0,0,1,0,16.19534Zm-6.389-13.46066a13.85509,13.85509,0,0,0-7.38734-7.38808,13.88321,13.88321,0,0,0-10.72671,0,13.85509,13.85509,0,0,0-7.38734,7.38808,13.8816,13.8816,0,0,0,0,10.726,13.85509,13.85509,0,0,0,7.38734,7.38808,13.88321,13.88321,0,0,0,10.72671,0,13.85509,13.85509,0,0,0,7.38734-7.38808,13.87269,13.87269,0,0,0,0-10.726Z" fill="#fff"/><path d="M385.29076,21.209V54.86067h-6.83557V21.209H368.04412v-6.8355h27.60479V21.209Z" fill="#fff"/><polygon points="12.258 49.637 32.695 61.46 48.089 51.227 28.741 19.751 12.258 49.637" fill="#2280f3"/><polygon points="8.333 22.612 11.115 47.568 26.794 19.141 8.333 22.612" fill="#2280f3"/><polygon points="55.265 19.213 34.924 8.232 30.286 16.909 55.265 19.213" fill="#2280f3"/><polygon points="32.29 8.917 10.939 20.087 28.039 16.871 32.29 8.917" fill="#2280f3"/><polygon points="49.756 50.119 55.451 46.333 57.877 21.462 30.593 18.945 49.756 50.119" fill="#2280f3"/></svg>