
<svg width="20px" height="17px" viewBox="0 0 20 17" version="1.1" xmlns="http://www.w3.org/2000/svg" xmlns:xlink="http://www.w3.org/1999/xlink">
    <!-- Generator: Sketch 49 (51002) - http://www.bohemiancoding.com/sketch -->
    <desc>Created with Sketch.</desc>
    <defs></defs>
    <g id="Page-1" stroke="none" stroke-width="1" fill="none" fill-rule="evenodd">
        <g id="Desktop-HD" transform="translate(-373.000000, -732.000000)" fill="#02ADFF">
            <path d="M379.457934,740.936744 L388.464479,735.521282 C388.626279,735.424241 388.792813,735.637913 388.653813,735.763786 L381.22087,742.509114 C380.959603,742.746541 380.791069,743.064283 380.743336,743.409164 L380.490135,745.241024 C380.456602,745.485611 380.104668,745.509887 380.035535,745.273176 L379.061734,741.932728 C378.9502,741.551725 379.112734,741.144754 379.457934,740.936744 M377.961665,741.830611 L379.745401,747.430913 C379.859535,747.789592 380.308802,747.922169 380.607002,747.684156 L383.175806,745.63973 C383.445073,745.425538 383.828606,745.414864 384.110007,745.614282 L388.743213,748.898237 C389.062147,749.1246 389.514147,748.953949 389.594147,748.577632 L392.988218,732.639092 C393.075552,732.22802 392.661818,731.885091 392.260884,732.036477 L373.347859,739.159359 C372.881125,739.335087 372.885192,739.980202 373.353259,740.151438 L377.961665,741.830611 Z" id="Fill-1"></path>
        </g>
    </g>
</svg>