<svg width="84px" height="84px" viewBox="0 0 84 84" version="1.1" xmlns="http://www.w3.org/2000/svg" xmlns:xlink="http://www.w3.org/1999/xlink">
    <!-- Generator: Sketch 49 (51002) - http://www.bohemiancoding.com/sketch -->
    <desc>Created with Sketch.</desc>
    <defs></defs>
    <g id="黑色版" stroke="none" stroke-width="1" fill="none" fill-rule="evenodd">
        <g id="2.0-Community" transform="translate(-1016.000000, -2867.000000)" fill="#FFFFFF">
            <g id="Group" transform="translate(1013.000000, 2864.000000)">
                <g id="Group-3">
                    <path d="M14.8351648,75.1648352 C29.9175824,90.2472527 60.0824176,90.2472527 75.1648352,75.1648352 C90.2472527,60.0824176 90.2472527,29.9175824 75.1648352,14.8351648 C60.0824176,-0.247252737 29.9175824,-0.24725275 14.8351648,14.8351648 C-0.247252743,29.9175824 -0.247252747,60.0824176 14.8351648,75.1648352 Z M69.9651308,23.4555544 L60.4622421,69.1659024 C60.2382578,70.2447156 58.9727911,70.7335702 58.0795204,70.0851712 L45.1073196,60.6664988 C44.3200415,60.0954278 43.2454502,60.1256479 42.4921698,60.7402714 L35.3000078,66.6027489 C34.4649553,67.2858121 33.2072657,66.9047277 32.8877326,65.8770221 L27.8934164,49.8157047 L14.990544,45.0000426 C13.6799693,44.5096326 13.6686368,42.6590958 14.9758784,42.1555755 L67.9288293,21.7274535 C69.0509727,21.2932617 70.2097803,22.2767482 69.9651308,23.4555544 Z" id="Fill-1"></path>
                </g>
                <path d="M55.580591,36.0715258 L35.797595,48.4246735 C35.0391108,48.8988633 34.6822694,49.8274481 34.9266718,50.6966488 L37.0656285,58.316382 C37.2181621,58.8563186 37.9909408,58.8011761 38.0645056,58.2432122 L38.6207738,54.0644037 C38.7257169,53.2780934 39.0954583,52.5524046 39.6695075,52.0112308 L55.9960053,36.624541 C56.3017698,36.3380476 55.9355149,35.8506025 55.580591,36.0715258 Z" id="Fill-4"></path>
            </g>
        </g>
    </g>
</svg>