
<svg width="20px" height="20px" viewBox="0 0 20 20" version="1.1" xmlns="http://www.w3.org/2000/svg" xmlns:xlink="http://www.w3.org/1999/xlink">
    <!-- Generator: Sketch 49 (51002) - http://www.bohemiancoding.com/sketch -->
    <desc>Created with Sketch.</desc>
    <defs></defs>
    <g id="Page-1" stroke="none" stroke-width="1" fill="none" fill-rule="evenodd">
        <g id="Desktop-HD" transform="translate(-549.000000, -731.000000)" fill="#FFFFFF">
            <path d="M565.047059,738.333197 C565.051765,738.451253 565.05422,738.569514 565.05422,738.688389 C565.05422,742.960102 561.803683,747.378517 556.364092,747.378517 C554.701483,747.378517 553.082251,746.904246 551.682148,746.006036 C551.65289,745.987417 551.641023,745.951202 551.652481,745.91867 C551.664143,745.886343 551.697084,745.866292 551.730844,745.870179 C551.965729,745.898414 552.205934,745.912123 552.444297,745.912123 C553.73821,745.912123 554.962762,745.512123 555.99867,744.753248 C554.757136,744.648491 553.689719,743.808184 553.305882,742.609412 C553.297903,742.58445 553.303632,742.557442 553.320818,742.537596 C553.33821,742.517954 553.364808,742.509361 553.390179,742.514271 C553.734322,742.579335 554.084194,742.583632 554.421381,742.528798 C553.140767,742.131049 552.240716,740.931253 552.240716,739.565524 L552.241125,739.525831 C552.241944,739.499847 552.255857,739.476113 552.278363,739.463223 C552.300665,739.450128 552.328491,739.449923 552.350997,739.462609 C552.68491,739.64798 553.054425,739.767059 553.433555,739.812685 C552.697596,739.226087 552.265473,738.33688 552.265473,737.385678 C552.265473,736.836931 552.410742,736.297596 552.685729,735.825985 C552.69821,735.80491 552.719693,735.791407 552.743836,735.789565 C552.768184,735.78711 552.791918,735.797749 552.807059,735.816573 C554.313555,737.664143 556.529003,738.801739 558.898312,738.948031 C558.858824,738.749156 558.838772,738.544143 558.838772,738.337289 C558.838772,736.626598 560.230486,735.23509 561.940972,735.23509 C562.782097,735.23509 563.594578,735.580665 564.177084,736.184655 C564.833657,736.050844 565.459335,735.809412 566.036931,735.466905 C566.063529,735.451151 566.096471,735.453606 566.120818,735.472634 C566.144552,735.491867 566.154373,735.523785 566.144962,735.553248 C565.949156,736.165627 565.567366,736.699847 565.054425,737.085524 C565.537494,737.001432 566.00624,736.859437 566.452072,736.661586 C566.482148,736.647877 566.517545,736.656471 566.538824,736.681637 C566.560307,736.707008 566.561944,736.743223 566.543529,736.770639 C566.137391,737.378517 565.634066,737.904143 565.047059,738.333197 M559,731 C553.477136,731 549,735.477136 549,741 C549,746.522864 553.477136,751 559,751 C564.522864,751 569,746.522864 569,741 C569,735.477136 564.522864,731 559,731" id="Fill-1"></path>
        </g>
    </g>
</svg>