
<svg width="20px" height="20px" viewBox="0 0 20 20" version="1.1" xmlns="http://www.w3.org/2000/svg" xmlns:xlink="http://www.w3.org/1999/xlink">
    <!-- Generator: Sketch 49 (51002) - http://www.bohemiancoding.com/sketch -->
    <desc>Created with Sketch.</desc>
    <defs>
        <polygon id="path-1" points="0.000102040816 0.0510408163 19.9489796 0.0510408163 19.9489796 20 0.000102040816 20"></polygon>
    </defs>
    <g id="Page-1" stroke="none" stroke-width="1" fill="none" fill-rule="evenodd">
        <g id="Desktop-HD" transform="translate(-603.000000, -731.000000)">
            <g id="Group-4" transform="translate(603.000000, 731.000000)">
                <g id="Group-3">
                    <mask id="mask-2" fill="white">
                        <use xlink:href="#path-1"></use>
                    </mask>
                    <g id="Clip-2"></g>
                    <path d="M16.8241837,9.19961224 L16.8241837,9.20165306 C16.732551,9.48389796 16.4288776,9.63859184 16.1464286,9.54716327 C15.862551,9.45593878 15.7078571,9.15287755 15.7994898,8.86961224 L15.7994898,8.86879592 C16.0803061,7.99940816 15.9021429,7.00777551 15.2464286,6.28063265 C14.5896939,5.5534898 13.6219388,5.27532653 12.727449,5.46553061 C12.4364286,5.52777551 12.1507143,5.34206122 12.0884694,5.05144898 C12.0260204,4.76083673 12.2115306,4.47471429 12.5023469,4.41246939 L12.5027551,4.41246939 C13.759898,4.14532653 15.1219388,4.53532653 16.0452041,5.55920408 C16.9690816,6.58165306 17.2184694,7.97593878 16.8241837,9.19961224 Z M14.1237755,8.32716327 C14.2180612,8.03573469 14.1586735,7.70369388 13.9388776,7.45981633 C13.7192857,7.2167551 13.3943878,7.12410204 13.095,7.18757143 L13.095,7.18716327 C12.8452041,7.24144898 12.5988776,7.08104082 12.5458163,6.83165306 C12.4917347,6.58083673 12.6517347,6.3345102 12.9017347,6.2812449 C13.5143878,6.1512449 14.1780612,6.34063265 14.6272449,6.83879592 C15.0778571,7.33736735 15.1980612,8.01655102 15.0058163,8.61206122 C14.9270408,8.85593878 14.6662245,8.98879592 14.422551,8.91104082 C14.1790816,8.83165306 14.0460204,8.57022449 14.1243878,8.32716327 L14.1237755,8.32716327 Z M8.84336735,15.7202245 C5.92622449,15.7202245 2.94459184,14.3061429 2.94459184,11.981449 C2.94459184,10.7657347 3.71459184,9.36022449 5.04071429,8.03369388 C6.81193878,6.2634898 8.8772449,5.4567551 9.65377551,6.23410204 C9.99622449,6.57655102 10.0294898,7.16920408 9.80928571,7.87716327 C9.69438776,8.23389796 10.1439796,8.03614286 10.1439796,8.03695918 C11.5756122,7.43736735 12.8243878,7.40246939 13.2807143,8.0545102 C13.5237755,8.40206122 13.5009184,8.88920408 13.2762245,9.45430612 C13.1723469,9.71410204 13.3082653,9.75491837 13.5062245,9.81389796 C14.3127551,10.0643061 15.2107143,10.6687959 15.2107143,11.7347143 C15.2105102,13.4983878 12.6670408,15.7202245 8.84336735,15.7202245 Z M9.97459184,0.0510408163 C4.46581633,0.0510408163 0.000102040816,4.51695918 0.000102040816,10.0255306 C0.000102040816,15.534102 4.46581633,20.0000204 9.97459184,20.0000204 C15.4831633,20.0000204 19.9490816,15.534102 19.9490816,10.0255306 C19.9490816,4.51695918 15.4831633,0.0510408163 9.97459184,0.0510408163 Z" id="Fill-1" fill="#FFFFFF" mask="url(#mask-2)"></path>
                </g>
                <path d="M8.86608163,11.7701633 C8.72771429,11.7150612 8.55465306,11.782 8.47342857,11.9179184 C8.39465306,12.0550612 8.43812245,12.2105714 8.57689796,12.2675102 C8.71771429,12.3254694 8.89791837,12.2587347 8.97934694,12.1189388 C9.05710204,11.9789388 9.00669388,11.8215918 8.86608163,11.7701633" id="Fill-4" fill="#FFFFFF"></path>
                <path d="M10.3459796,12.9571837 C9.87108163,14.0314694 8.50495918,14.6039184 7.34557143,14.2306531 C6.22679592,13.8692245 5.75312245,12.7639184 6.24312245,11.7688163 C6.72373469,10.7926939 7.97618367,10.2408571 9.08332653,10.5292245 C10.2298571,10.825551 10.8147551,11.9069796 10.3459796,12.9571837 M8.30373469,9.35310204 C5.97679592,9.5835102 4.21169388,11.0084082 4.36271429,12.5361633 C4.51393878,14.0645306 6.52353061,15.1165714 8.85067347,14.8869796 C11.1782245,14.6569796 12.9425102,13.2318776 12.7916939,11.702898 C12.6406735,10.1749388 10.6316939,9.12269388 8.30373469,9.35310204" id="Fill-6" fill="#FFFFFF"></path>
            </g>
        </g>
    </g>
</svg>